<svg width="122" height="22" viewBox="0 0 122 22" fill="none" xmlns="http://www.w3.org/2000/svg">
<path d="M7.93945 7.82617L10.6143 1.35938H14.9541L9.99121 11.4355V17H5.89844V11.4355L0.924805 1.35938H5.26465L7.93945 7.82617Z" fill="#EE2B69"/>
<path d="M28.8115 11.6182C28.7686 12.721 28.4749 13.695 27.9307 14.54C27.3864 15.3779 26.6309 16.0332 25.6641 16.5059C24.7044 16.9785 23.5729 17.2148 22.2695 17.2148C20.8587 17.2148 19.652 16.9069 18.6494 16.291C17.6468 15.668 16.8805 14.7799 16.3506 13.627C15.8278 12.474 15.5664 11.099 15.5664 9.50195V8.86816C15.5664 7.264 15.8421 5.88542 16.3936 4.73242C16.945 3.57943 17.7148 2.69141 18.7031 2.06836C19.6986 1.44531 20.8659 1.13379 22.2051 1.13379C23.5944 1.13379 24.7617 1.38444 25.707 1.88574C26.6595 2.38704 27.3936 3.07096 27.9092 3.9375C28.432 4.80404 28.7399 5.78158 28.833 6.87012H24.8154C24.8011 6.05371 24.6042 5.44499 24.2246 5.04395C23.8451 4.6429 23.1719 4.44238 22.2051 4.44238C21.625 4.44238 21.1452 4.58203 20.7656 4.86133C20.3932 5.13346 20.1139 5.5918 19.9277 6.23633C19.7487 6.8737 19.6592 7.74381 19.6592 8.84668V9.50195C19.6592 10.612 19.738 11.4893 19.8955 12.1338C20.0602 12.7712 20.3324 13.2259 20.7119 13.498C21.0986 13.7702 21.6178 13.9062 22.2695 13.9062C22.8066 13.9062 23.2614 13.8275 23.6338 13.6699C24.0062 13.5124 24.2891 13.2653 24.4824 12.9287C24.6829 12.5921 24.7868 12.1553 24.7939 11.6182H28.8115Z" fill="#EE2B69"/>
<path d="M32.1523 17V13.7559H35.6006C36.2809 13.7559 36.8538 13.5983 37.3193 13.2832C37.7848 12.9681 38.1393 12.4919 38.3828 11.8545C38.6263 11.2171 38.748 10.415 38.748 9.44824V8.90039C38.748 7.94076 38.6263 7.14583 38.3828 6.51562C38.1465 5.87826 37.7884 5.40202 37.3086 5.08691C36.8359 4.77181 36.2451 4.61426 35.5361 4.61426H32.0879V1.35938H35.5361C36.9684 1.35938 38.2324 1.68164 39.3281 2.32617C40.431 2.9707 41.2939 3.8623 41.917 5.00098C42.54 6.13249 42.8516 7.43945 42.8516 8.92188V9.44824C42.8516 10.9235 42.54 12.2305 41.917 13.3691C41.2939 14.5078 40.4382 15.3994 39.3496 16.0439C38.2611 16.6813 37.0114 17 35.6006 17H32.1523ZM34.4834 17H30.4443V1.35938H34.4834V17Z" fill="black"/>
<path d="M46.6221 0.5C47.2594 0.5 47.7715 0.679036 48.1582 1.03711C48.5521 1.39518 48.749 1.86068 48.749 2.43359C48.749 2.99935 48.5521 3.46484 48.1582 3.83008C47.7715 4.18815 47.2594 4.36719 46.6221 4.36719C45.9919 4.36719 45.4798 4.18815 45.0859 3.83008C44.6921 3.46484 44.4951 2.99935 44.4951 2.43359C44.4951 1.86068 44.6921 1.39518 45.0859 1.03711C45.4798 0.679036 45.9919 0.5 46.6221 0.5ZM48.5664 17H44.6777V5.37695H48.5664V17Z" fill="black"/>
<path d="M54.5391 17H50.6719V5.37695H54.2812L54.5391 8.48145V17ZM57.8262 9.07227C57.6758 9.05794 57.4717 9.04004 57.2139 9.01855C56.9632 8.99707 56.7591 8.98633 56.6016 8.98633C56.0573 8.98633 55.6133 9.05794 55.2695 9.20117C54.9329 9.33724 54.6895 9.55208 54.5391 9.8457C54.3887 10.1393 54.3171 10.526 54.3242 11.0059L53.6475 10.4258C53.6475 9.37305 53.7799 8.4528 54.0449 7.66504C54.3099 6.87012 54.6823 6.25423 55.1621 5.81738C55.6491 5.38053 56.2184 5.16211 56.8701 5.16211C57.0492 5.16211 57.2282 5.17285 57.4072 5.19434C57.5934 5.20866 57.7546 5.24089 57.8906 5.29102L57.8262 9.07227Z" fill="black"/>
<path d="M64.8086 17.2148C63.5195 17.2148 62.4202 16.9535 61.5107 16.4307C60.6084 15.9079 59.9209 15.2204 59.4482 14.3682C58.9756 13.5088 58.7393 12.5814 58.7393 11.5859V11.1885C58.7393 10.0785 58.9469 9.06868 59.3623 8.15918C59.7777 7.24251 60.4043 6.51562 61.2422 5.97852C62.0801 5.43424 63.1328 5.16211 64.4004 5.16211C65.5247 5.16211 66.4844 5.39486 67.2793 5.86035C68.0742 6.31869 68.6829 6.97754 69.1055 7.83691C69.5352 8.68913 69.75 9.70964 69.75 10.8984V12.5205H60.1895V10.0391H65.9688V9.72754C65.9759 9.39095 65.9186 9.11523 65.7969 8.90039C65.6751 8.68555 65.4925 8.528 65.249 8.42773C65.0127 8.32747 64.7191 8.27734 64.3682 8.27734C63.8669 8.27734 63.4909 8.41699 63.2402 8.69629C62.9896 8.97559 62.8213 9.33724 62.7354 9.78125C62.6494 10.2181 62.6064 10.6872 62.6064 11.1885V11.5859C62.6064 12.1016 62.7031 12.5492 62.8965 12.9287C63.0898 13.3011 63.3691 13.5876 63.7344 13.7881C64.1068 13.9886 64.5508 14.0889 65.0664 14.0889C65.5391 14.0889 66.0117 14.0065 66.4844 13.8418C66.9642 13.6771 67.3688 13.387 67.6982 12.9717L69.4385 15.1953C69.0804 15.6966 68.5003 16.1585 67.6982 16.5811C66.9033 17.0036 65.9401 17.2148 64.8086 17.2148Z" fill="black"/>
<path d="M76.1846 17.2148C74.96 17.2148 73.9395 16.957 73.123 16.4414C72.3138 15.9258 71.7051 15.224 71.2969 14.3359C70.8887 13.4408 70.6846 12.4274 70.6846 11.2959V11.0918C70.6846 9.96029 70.8851 8.94694 71.2861 8.05176C71.6943 7.15658 72.3031 6.45117 73.1123 5.93555C73.9287 5.41992 74.9456 5.16211 76.1631 5.16211C77.1514 5.16211 78.0179 5.34831 78.7627 5.7207C79.5146 6.08594 80.1019 6.62305 80.5244 7.33203C80.9469 8.04102 81.151 8.90755 81.1367 9.93164H77.5166C77.5238 9.63086 77.4772 9.35514 77.377 9.10449C77.2839 8.85384 77.1299 8.65332 76.915 8.50293C76.7002 8.35254 76.4173 8.27734 76.0664 8.27734C75.6152 8.27734 75.2822 8.40625 75.0674 8.66406C74.8525 8.91471 74.7129 9.25488 74.6484 9.68457C74.584 10.1071 74.5518 10.5762 74.5518 11.0918V11.2959C74.5518 11.8258 74.5804 12.3021 74.6377 12.7246C74.7021 13.1471 74.8454 13.4837 75.0674 13.7344C75.2894 13.9779 75.6331 14.0996 76.0986 14.0996C76.4137 14.0996 76.6787 14.0459 76.8936 13.9385C77.1084 13.8311 77.266 13.6771 77.3662 13.4766C77.4736 13.2689 77.5238 13.0218 77.5166 12.7354H81.1367C81.151 13.6449 80.9398 14.4362 80.5029 15.1094C80.0732 15.7754 79.4824 16.2946 78.7305 16.667C77.9857 17.0322 77.137 17.2148 76.1846 17.2148Z" fill="black"/>
<path d="M88.8926 8.16992H81.749V5.37695H88.8926V8.16992ZM87.0342 2.4873V12.9932C87.0342 13.2653 87.0664 13.4801 87.1309 13.6377C87.1953 13.7881 87.3099 13.8955 87.4746 13.96C87.6465 14.0244 87.8792 14.0566 88.1729 14.0566C88.3734 14.0566 88.5417 14.0531 88.6777 14.0459C88.8138 14.0387 88.9391 14.0244 89.0537 14.0029V16.8818C88.7243 16.9964 88.3877 17.0788 88.0439 17.1289C87.7074 17.1862 87.3385 17.2148 86.9375 17.2148C86.1354 17.2148 85.4515 17.0895 84.8857 16.8389C84.3271 16.5811 83.901 16.1836 83.6074 15.6465C83.3138 15.1022 83.167 14.404 83.167 13.5518V2.4873H87.0342Z" fill="black"/>
<path d="M89.5479 11.0918C89.5479 9.95312 89.7627 8.93978 90.1924 8.05176C90.6221 7.15658 91.2559 6.45117 92.0938 5.93555C92.9316 5.41992 93.9629 5.16211 95.1875 5.16211C96.4264 5.16211 97.4648 5.41992 98.3027 5.93555C99.1478 6.45117 99.7816 7.15658 100.204 8.05176C100.634 8.93978 100.849 9.95312 100.849 11.0918V11.2959C100.849 12.4274 100.634 13.4408 100.204 14.3359C99.7816 15.2311 99.1514 15.9365 98.3135 16.4521C97.4756 16.9606 96.4408 17.2148 95.209 17.2148C93.9772 17.2148 92.9388 16.9606 92.0938 16.4521C91.2559 15.9365 90.6221 15.2311 90.1924 14.3359C89.7627 13.4408 89.5479 12.4274 89.5479 11.2959V11.0918ZM93.4258 11.2959C93.4258 11.8258 93.4723 12.3057 93.5654 12.7354C93.6657 13.1579 93.8447 13.4909 94.1025 13.7344C94.3604 13.9779 94.7292 14.0996 95.209 14.0996C95.6816 14.0996 96.0469 13.9779 96.3047 13.7344C96.5625 13.4909 96.738 13.1579 96.8311 12.7354C96.9313 12.3057 96.9814 11.8258 96.9814 11.2959V11.0918C96.9814 10.5762 96.9313 10.1071 96.8311 9.68457C96.738 9.25488 96.5625 8.91471 96.3047 8.66406C96.0469 8.40625 95.6745 8.27734 95.1875 8.27734C94.7148 8.27734 94.3496 8.40625 94.0918 8.66406C93.8411 8.91471 93.6657 9.25488 93.5654 9.68457C93.4723 10.1071 93.4258 10.5762 93.4258 11.0918V11.2959Z" fill="black"/>
<path d="M106.252 17H102.385V5.37695H105.994L106.252 8.48145V17ZM109.539 9.07227C109.389 9.05794 109.185 9.04004 108.927 9.01855C108.676 8.99707 108.472 8.98633 108.314 8.98633C107.77 8.98633 107.326 9.05794 106.982 9.20117C106.646 9.33724 106.402 9.55208 106.252 9.8457C106.102 10.1393 106.03 10.526 106.037 11.0059L105.36 10.4258C105.36 9.37305 105.493 8.4528 105.758 7.66504C106.023 6.87012 106.395 6.25423 106.875 5.81738C107.362 5.38053 107.931 5.16211 108.583 5.16211C108.762 5.16211 108.941 5.17285 109.12 5.19434C109.306 5.20866 109.467 5.24089 109.604 5.29102L109.539 9.07227Z" fill="black"/>
<path d="M117.273 5.37695H121.42L116.79 18.708C116.69 19.0016 116.554 19.3203 116.382 19.6641C116.21 20.0078 115.977 20.3337 115.684 20.6416C115.397 20.9495 115.025 21.2002 114.566 21.3936C114.115 21.5941 113.553 21.6943 112.88 21.6943C112.636 21.6943 112.443 21.6872 112.3 21.6729C112.157 21.6657 112.017 21.6442 111.881 21.6084C111.745 21.5726 111.562 21.526 111.333 21.4688V18.5898C111.419 18.5898 111.491 18.5863 111.548 18.5791C111.612 18.5791 111.688 18.5791 111.773 18.5791C112.346 18.5791 112.747 18.5075 112.977 18.3643C113.213 18.2282 113.378 18.0384 113.471 17.7949L114.33 15.5928L117.273 5.37695ZM115.995 13.1865L116.393 17.5049L113.814 17.3652L109.722 5.37695H113.868L115.995 13.1865Z" fill="black"/>
</svg>
